<svg width="122" height="122" viewBox="0 0 122 122" fill="none" xmlns="http://www.w3.org/2000/svg">
<path d="M59.9352 109.165C86.1844 109.165 107.464 87.8862 107.464 61.6371C107.464 35.3879 86.1844 14.1088 59.9352 14.1088C49.8239 14.1088 40.4501 17.2663 32.7459 22.649C25.9662 26.1677 12.407 38.8914 12.407 61.6371C12.407 87.8862 33.6861 109.165 59.9352 109.165Z" fill="#F4F7FA"/>
<path d="M0 61C0 94.5047 27.4953 122 61 122C94.5047 122 122 94.5047 122 61C122 29.9483 98.3834 4.05828 68.254 0.433714C64.2689 -0.0456858 61 3.25381 61 7.26758C61 11.2814 64.2746 14.4754 68.2398 15.0984C90.4339 18.5857 107.465 37.8421 107.465 61C107.465 86.62 86.62 107.465 61 107.465C35.38 107.465 14.5352 86.62 14.5352 61C14.5352 52.1323 17.0324 43.8368 21.3605 36.7796C23.4662 33.3461 23.1269 28.7573 20.028 26.1843C16.9843 23.657 12.4329 24.0283 10.2358 27.3184C3.77652 36.9911 0 48.5828 0 61Z" fill="url(#paint0_linear_55_1182)"/>
<path d="M37.8558 75.0213C37.0883 75.0213 36.4488 74.7622 35.9372 74.244C35.4256 73.7193 35.1698 73.0831 35.1698 72.3353V72.3156C35.1698 71.5679 35.4256 70.9284 35.9372 70.3971C36.4554 69.8658 37.0982 69.6002 37.8656 69.6002C38.7052 69.6002 39.3972 69.8986 39.9416 70.4955L39.2037 71.2924C38.7904 70.8595 38.3411 70.6431 37.8558 70.6431C37.4294 70.6431 37.0719 70.8038 36.7833 71.1252C36.5013 71.4466 36.3603 71.8368 36.3603 72.296V72.3156C36.3603 72.7879 36.5046 73.1847 36.7932 73.5061C37.0883 73.8275 37.4622 73.9882 37.9148 73.9882C38.3936 73.9882 38.8429 73.7718 39.2627 73.3389L39.9809 74.0473C39.6989 74.3621 39.3906 74.6048 39.0561 74.7753C38.7281 74.9393 38.328 75.0213 37.8558 75.0213ZM43.9775 74.9032V69.7084H45.1582V72.1976L47.4211 69.7084H48.8182L46.8012 71.8926L48.9854 74.9032H47.5785L46.0043 72.7584L45.1582 73.6537V74.9032H43.9775ZM54.1682 74.9032H52.9875V74.2637C52.5678 74.7622 52.007 75.0115 51.3051 75.0115C50.787 75.0115 50.3475 74.8704 49.9867 74.5884C49.6325 74.2998 49.4554 73.8997 49.4554 73.3881C49.4554 72.8305 49.6489 72.4075 50.0359 72.1189C50.4229 71.8303 50.9313 71.686 51.5609 71.686C52.066 71.686 52.5448 71.7581 52.9974 71.9024V71.804C52.9974 71.4433 52.8859 71.1678 52.6629 70.9776C52.4464 70.7874 52.1316 70.6923 51.7183 70.6923C51.2461 70.6923 50.7509 70.8005 50.2327 71.0169L49.908 70.0626C50.5508 69.774 51.21 69.6297 51.8856 69.6297C52.6399 69.6297 53.2073 69.8199 53.5877 70.2003C53.9747 70.5808 54.1682 71.1219 54.1682 71.8237V74.9032ZM53.0171 73.024V72.7289C52.6629 72.5911 52.266 72.5223 51.8266 72.5223C51.4527 72.5223 51.1608 72.5944 50.9509 72.7387C50.741 72.883 50.6361 73.0863 50.6361 73.3487C50.6361 73.5848 50.7312 73.7718 50.9214 73.9095C51.1116 74.0473 51.351 74.1161 51.6396 74.1161C52.0397 74.1161 52.3677 74.0145 52.6235 73.8111C52.8859 73.6078 53.0171 73.3454 53.0171 73.024ZM54.9249 74.9032L56.9615 71.8926L55.0036 69.7084H56.3909L58.5456 72.2566V69.7084H59.7361V72.2566L61.9006 69.7084H63.2878L61.3299 71.8926L63.3567 74.9032H62.0186L60.533 72.6895L59.7361 73.5947V74.9032H58.5456V73.5947L57.7486 72.6895L56.263 74.9032H54.9249ZM63.5928 76.1527V73.88H64.1536C64.5406 73.106 64.7341 71.9287 64.7341 70.3479V69.7084H68.7582V73.88H69.4961L69.3386 76.1527H68.3449V74.9032H64.7046L64.5865 76.1527H63.5928ZM65.3736 73.88H67.5677V70.7316H65.8557V71.4203C65.8557 72.3845 65.695 73.2044 65.3736 73.88ZM72.9558 75.0213C72.1687 75.0213 71.5128 74.7589 70.9881 74.2342C70.4633 73.7095 70.201 73.0699 70.201 72.3156C70.201 71.5613 70.4666 70.9218 70.9979 70.3971C71.5292 69.8658 72.1884 69.6002 72.9755 69.6002C73.7626 69.6002 74.4185 69.8625 74.9432 70.3873C75.4745 70.912 75.7402 71.5548 75.7402 72.3156C75.7402 73.0634 75.4745 73.7029 74.9432 74.2342C74.412 74.7589 73.7495 75.0213 72.9558 75.0213ZM72.9755 73.9882C73.4478 73.9882 73.8282 73.8275 74.1168 73.5061C74.4054 73.1847 74.5497 72.7879 74.5497 72.3156C74.5497 71.8499 74.3988 71.4564 74.0971 71.135C73.7954 70.807 73.415 70.6431 72.9558 70.6431C72.4901 70.6431 72.113 70.8038 71.8244 71.1252C71.5358 71.4466 71.3915 71.8434 71.3915 72.3156C71.3915 72.7748 71.5423 73.1683 71.844 73.4963C72.1458 73.8243 72.5229 73.9882 72.9755 73.9882ZM76.9526 74.9032V69.7084H80.6322V70.7316H78.143V74.9032H76.9526ZM84.0436 75.0213C83.2565 75.0213 82.6006 74.7589 82.0758 74.2342C81.5511 73.7095 81.2887 73.0699 81.2887 72.3156C81.2887 71.5613 81.5544 70.9218 82.0857 70.3971C82.617 69.8658 83.2762 69.6002 84.0633 69.6002C84.8504 69.6002 85.5063 69.8625 86.031 70.3873C86.5623 70.912 86.8279 71.5548 86.8279 72.3156C86.8279 73.0634 86.5623 73.7029 86.031 74.2342C85.4997 74.7589 84.8372 75.0213 84.0436 75.0213ZM84.0633 73.9882C84.5355 73.9882 84.916 73.8275 85.2046 73.5061C85.4932 73.1847 85.6375 72.7879 85.6375 72.3156C85.6375 71.8499 85.4866 71.4564 85.1849 71.135C84.8832 70.807 84.5027 70.6431 84.0436 70.6431C83.5779 70.6431 83.2007 70.8038 82.9121 71.1252C82.6235 71.4466 82.4792 71.8434 82.4792 72.3156C82.4792 72.7748 82.6301 73.1683 82.9318 73.4963C83.2335 73.8243 83.6107 73.9882 84.0633 73.9882ZM43.5932 86.9032V81.7084H48.2272V86.9032H47.0367V82.7316H44.7837V86.9032H43.5932ZM52.1927 87.0213C51.4056 87.0213 50.7497 86.7589 50.2249 86.2342C49.7002 85.7095 49.4378 85.0699 49.4378 84.3156C49.4378 83.5613 49.7035 82.9218 50.2348 82.3971C50.7661 81.8658 51.4253 81.6002 52.2124 81.6002C52.9995 81.6002 53.6554 81.8625 54.1801 82.3873C54.7114 82.912 54.977 83.5548 54.977 84.3156C54.977 85.0634 54.7114 85.7029 54.1801 86.2342C53.6488 86.7589 52.9863 87.0213 52.1927 87.0213ZM52.2124 85.9882C52.6846 85.9882 53.065 85.8275 53.3537 85.5061C53.6423 85.1847 53.7866 84.7879 53.7866 84.3156C53.7866 83.8499 53.6357 83.4564 53.334 83.135C53.0323 82.807 52.6518 82.6431 52.1927 82.6431C51.727 82.6431 51.3498 82.8038 51.0612 83.1252C50.7726 83.4466 50.6283 83.8434 50.6283 84.3156C50.6283 84.7748 50.7792 85.1683 51.0809 85.4963C51.3826 85.8243 51.7598 85.9882 52.2124 85.9882ZM56.1501 86.9623C55.9599 86.9623 55.727 86.9393 55.4515 86.8934L55.5401 85.9194C55.645 85.9456 55.7598 85.9587 55.8844 85.9587C56.0222 85.9587 56.1337 85.939 56.2189 85.8997C56.3108 85.8603 56.4026 85.7619 56.4944 85.6045C56.5928 85.4405 56.6682 85.211 56.7207 84.9158C56.7732 84.6206 56.8158 84.2074 56.8486 83.6761C56.8814 83.1383 56.8978 82.4824 56.8978 81.7084H60.8235V86.9032H59.633V82.7316H58.0096C58.0096 83.4728 57.9801 84.1025 57.921 84.6206C57.862 85.1388 57.7833 85.5488 57.6849 85.8505C57.5931 86.1522 57.4619 86.3883 57.2914 86.5589C57.1274 86.7229 56.9601 86.8311 56.7896 86.8836C56.6191 86.936 56.4059 86.9623 56.1501 86.9623ZM62.3194 86.9032V81.7084H63.4804V85.1913C64.5692 83.6433 65.3891 82.4824 65.9401 81.7084H67.0617V86.9032H65.9105V83.44L63.441 86.9032H62.3194ZM70.9557 87.0213C70.1883 87.0213 69.5488 86.7622 69.0372 86.244C68.5256 85.7193 68.2698 85.0831 68.2698 84.3353V84.3156C68.2698 83.5679 68.5256 82.9284 69.0372 82.3971C69.5553 81.8658 70.1981 81.6002 70.9656 81.6002C71.8051 81.6002 72.4971 81.8986 73.0415 82.4955L72.3036 83.2924C71.8904 82.8595 71.4411 82.6431 70.9557 82.6431C70.5294 82.6431 70.1719 82.8038 69.8833 83.1252C69.6013 83.4466 69.4602 83.8368 69.4602 84.296V84.3156C69.4602 84.7879 69.6045 85.1847 69.8931 85.5061C70.1883 85.8275 70.5622 85.9882 71.0148 85.9882C71.4936 85.9882 71.9429 85.7718 72.3627 85.3389L73.0809 86.0473C72.7988 86.3621 72.4906 86.6048 72.156 86.7753C71.8281 86.9393 71.428 87.0213 70.9557 87.0213ZM78.4863 86.9032H77.3057V86.2637C76.8859 86.7622 76.3251 87.0115 75.6233 87.0115C75.1051 87.0115 74.6656 86.8704 74.3049 86.5884C73.9507 86.2998 73.7736 85.8997 73.7736 85.3881C73.7736 84.8305 73.9671 84.4075 74.3541 84.1189C74.7411 83.8303 75.2494 83.686 75.8791 83.686C76.3841 83.686 76.8629 83.7581 77.3155 83.9024V83.804C77.3155 83.4433 77.204 83.1678 76.981 82.9776C76.7646 82.7874 76.4497 82.6923 76.0365 82.6923C75.5642 82.6923 75.069 82.8005 74.5508 83.0169L74.2262 82.0626C74.869 81.774 75.5282 81.6297 76.2037 81.6297C76.958 81.6297 77.5254 81.8199 77.9058 82.2003C78.2928 82.5808 78.4863 83.1219 78.4863 83.8237V86.9032ZM77.3352 85.024V84.7289C76.981 84.5911 76.5842 84.5223 76.1447 84.5223C75.7708 84.5223 75.479 84.5944 75.2691 84.7387C75.0592 84.883 74.9542 85.0863 74.9542 85.3487C74.9542 85.5848 75.0493 85.7718 75.2396 85.9095C75.4298 86.0473 75.6692 86.1161 75.9578 86.1161C76.3579 86.1161 76.6858 86.0145 76.9416 85.8111C77.204 85.6078 77.3352 85.3454 77.3352 85.024Z" fill="#303030"/>
<path d="M38.9032 58.691H41.0638V55.4324H39.3754V55.5741C39.3597 56.9357 39.2023 57.9747 38.9032 58.691ZM41.9965 60.2258H38.0295L37.8996 61.7134H36.3884V58.691H37.0732C37.4825 57.8173 37.6871 56.4005 37.6871 54.4406V53.8975H42.8583V58.691H43.7202L43.5077 61.7134H41.9965V60.2258ZM50.2436 59.4112C49.5904 60.0487 48.7757 60.3675 47.7997 60.3675C46.8237 60.3675 46.0091 60.0526 45.3558 59.423C44.7104 58.7854 44.3876 58.0023 44.3876 57.0735C44.3876 56.1526 44.7143 55.3733 45.3676 54.7358C46.0287 54.0983 46.8473 53.7795 47.8233 53.7795C48.7993 53.7795 49.61 54.0983 50.2555 54.7358C50.9087 55.3655 51.2354 56.1447 51.2354 57.0735C51.2354 57.9944 50.9048 58.7736 50.2436 59.4112ZM47.8233 58.8208C48.3192 58.8208 48.7167 58.6555 49.0158 58.325C49.3149 57.9865 49.4644 57.5693 49.4644 57.0735C49.4644 56.5933 49.307 56.1841 48.9922 55.8456C48.6852 55.4993 48.2877 55.3261 47.7997 55.3261C47.3038 55.3261 46.9064 55.4953 46.6073 55.8338C46.3082 56.1644 46.1586 56.5776 46.1586 57.0735C46.1586 57.5536 46.3121 57.9668 46.6191 58.3132C46.9339 58.6516 47.3353 58.8208 47.8233 58.8208ZM58.5774 61.3828V60.1904C57.5306 60.0566 56.6018 59.6827 55.7911 59.0688L56.712 57.7228C57.3889 58.2344 58.0304 58.5532 58.6365 58.6792V56.8019C57.7549 56.5658 57.1095 56.2588 56.7002 55.881C56.2988 55.4953 56.0981 54.9601 56.0981 54.2753C56.0981 53.6299 56.3224 53.1026 56.771 52.6933C57.2197 52.284 57.8218 52.04 58.5774 51.9613V51.2765H59.8053V51.9849C60.6003 52.0951 61.3323 52.3863 62.0013 52.8586L61.2103 54.2399C60.7065 53.9015 60.2185 53.6693 59.7463 53.5433V55.3261C60.6514 55.5701 61.3047 55.8928 61.7061 56.2943C62.1076 56.6878 62.3083 57.2191 62.3083 57.8881C62.3083 58.5335 62.08 59.0609 61.6235 59.4702C61.1749 59.8795 60.5688 60.1274 59.8053 60.214V61.3828H58.5774ZM58.6365 55.031V53.4371C58.0934 53.5079 57.8218 53.7598 57.8218 54.1927C57.8218 54.3816 57.8769 54.543 57.9871 54.6768C58.1052 54.8027 58.3216 54.9208 58.6365 55.031ZM59.7463 58.7382C60.3051 58.6516 60.5845 58.3919 60.5845 57.959C60.5845 57.7543 60.5216 57.589 60.3956 57.4631C60.2776 57.3293 60.0611 57.2033 59.7463 57.0853V58.7382ZM63.4828 60.2258V58.7854L66.2337 56.5304C66.7768 56.0817 67.1507 55.7236 67.3553 55.456C67.56 55.1805 67.6623 54.8775 67.6623 54.5469C67.6623 54.2084 67.56 53.9448 67.3553 53.7559C67.1507 53.567 66.8831 53.4725 66.5525 53.4725C66.2455 53.4725 65.9661 53.5591 65.7142 53.7323C65.4702 53.8975 65.1869 54.1809 64.8642 54.5823L63.5891 53.5552C64.022 52.9648 64.4667 52.5319 64.9232 52.2564C65.3876 51.981 65.9701 51.8432 66.6706 51.8432C67.5285 51.8432 68.2172 52.0793 68.7367 52.5516C69.2562 53.016 69.5159 53.6378 69.5159 54.417C69.5159 54.8657 69.4293 55.271 69.2562 55.6331C69.083 55.9873 68.8587 56.3021 68.5832 56.5776C68.3077 56.8452 67.8945 57.1915 67.3435 57.6166L65.9976 58.6555H69.5986V60.2258H63.4828ZM74.2627 60.3675C73.2631 60.3675 72.4681 60.0723 71.8778 59.482C71.2245 58.8287 70.8978 57.7779 70.8978 56.3297C70.8978 54.9916 71.2048 53.9054 71.8187 53.0711C72.4327 52.2368 73.3339 51.8196 74.5224 51.8196C75.4827 51.8196 76.3445 52.1226 77.108 52.7287L76.1517 54.1337C75.8526 53.9054 75.5771 53.7401 75.3253 53.6378C75.0813 53.5276 74.794 53.4725 74.4634 53.4725C73.9754 53.4725 73.5897 53.6496 73.3063 54.0038C73.0309 54.3501 72.8616 54.8106 72.7987 55.3852C73.3339 55.031 73.9045 54.8539 74.5106 54.8539C75.3607 54.8539 76.0573 55.0861 76.6003 55.5504C77.1434 56.0148 77.415 56.6681 77.415 57.5103C77.415 58.3446 77.1159 59.0294 76.5177 59.5646C75.9195 60.0999 75.1678 60.3675 74.2627 60.3675ZM73.1411 58.4666C73.4008 58.6949 73.7511 58.809 74.1918 58.809C74.6326 58.809 74.9789 58.6949 75.2308 58.4666C75.4827 58.2384 75.6086 57.9393 75.6086 57.5693C75.6086 57.2152 75.4787 56.9279 75.219 56.7075C74.9593 56.4792 74.609 56.3651 74.1682 56.3651C73.7274 56.3651 73.3811 56.4753 73.1293 56.6957C72.8774 56.9161 72.7514 57.2112 72.7514 57.5812C72.7514 57.9353 72.8813 58.2305 73.1411 58.4666ZM85.0314 59.1514C84.3467 59.9621 83.4612 60.3675 82.375 60.3675C81.2888 60.3675 80.4073 59.9621 79.7303 59.1514C79.0534 58.3407 78.715 57.3214 78.715 56.0935C78.715 54.8735 79.0574 53.8582 79.7422 53.0475C80.4269 52.2289 81.3124 51.8196 82.3986 51.8196C83.4769 51.8196 84.3545 52.225 85.0314 53.0357C85.7162 53.8464 86.0586 54.8657 86.0586 56.0935C86.0586 57.3135 85.7162 58.3328 85.0314 59.1514ZM81.0763 57.9826C81.4147 58.4784 81.8555 58.7264 82.3986 58.7264C82.9417 58.7264 83.3746 58.4824 83.6973 57.9944C84.0279 57.4985 84.1932 56.8649 84.1932 56.0935C84.1932 55.3379 84.024 54.7122 83.6855 54.2163C83.3471 53.7126 82.9102 53.4607 82.375 53.4607C81.8398 53.4607 81.4069 53.7086 81.0763 54.2045C80.7457 54.6925 80.5804 55.3222 80.5804 56.0935C80.5804 56.857 80.7457 57.4867 81.0763 57.9826Z" fill="#303030"/>
<path d="M41.9748 47.1915V43.8266H42.7541C43.0768 43.0789 43.309 42.2879 43.4506 41.4535C43.5923 40.6192 43.6632 39.5252 43.6632 38.1714V37.2032H49.6726V43.8266H50.6644L50.4283 47.1915H48.9052V45.4677H43.734L43.6159 47.1915H41.9748ZM47.8545 38.8443H45.4105V39.6826C45.4105 41.241 45.1626 42.6224 44.6667 43.8266H47.8545V38.8443ZM57.2941 44.6531C56.6408 45.2906 55.8261 45.6094 54.8501 45.6094C53.8741 45.6094 53.0595 45.2946 52.4062 44.6649C51.7608 44.0274 51.4381 43.2442 51.4381 42.3154C51.4381 41.3945 51.7647 40.6153 52.418 39.9777C53.0792 39.3402 53.8978 39.0214 54.8738 39.0214C55.8498 39.0214 56.6605 39.3402 57.3059 39.9777C57.9592 40.6074 58.2858 41.3866 58.2858 42.3154C58.2858 43.2363 57.9552 44.0155 57.2941 44.6531ZM54.8738 44.0628C55.3696 44.0628 55.7671 43.8975 56.0662 43.5669C56.3653 43.2285 56.5149 42.8113 56.5149 42.3154C56.5149 41.8353 56.3574 41.426 56.0426 41.0875C55.7356 40.7412 55.3381 40.5681 54.8501 40.5681C54.3543 40.5681 53.9568 40.7373 53.6577 41.0757C53.3586 41.4063 53.209 41.8195 53.209 42.3154C53.209 42.7955 53.3625 43.2088 53.6695 43.5551C53.9843 43.8935 54.3858 44.0628 54.8738 44.0628ZM59.054 45.4677L61.2736 42.2564L59.1366 39.1395H61.0611L62.2417 40.9813L63.4342 39.1395H65.3114L63.1744 42.221L65.4059 45.4677H63.4814L62.2063 43.4961L60.9312 45.4677H59.054ZM72.0291 44.6531C71.3758 45.2906 70.5612 45.6094 69.5852 45.6094C68.6092 45.6094 67.7945 45.2946 67.1412 44.6649C66.4958 44.0274 66.1731 43.2442 66.1731 42.3154C66.1731 41.3945 66.4997 40.6153 67.153 39.9777C67.8142 39.3402 68.6328 39.0214 69.6088 39.0214C70.5848 39.0214 71.3955 39.3402 72.0409 39.9777C72.6942 40.6074 73.0208 41.3866 73.0208 42.3154C73.0208 43.2363 72.6902 44.0155 72.0291 44.6531ZM69.6088 44.0628C70.1046 44.0628 70.5021 43.8975 70.8012 43.5669C71.1003 43.2285 71.2499 42.8113 71.2499 42.3154C71.2499 41.8353 71.0924 41.426 70.7776 41.0875C70.4706 40.7412 70.0732 40.5681 69.5852 40.5681C69.0893 40.5681 68.6918 40.7373 68.3927 41.0757C68.0936 41.4063 67.9441 41.8195 67.9441 42.3154C67.9441 42.7955 68.0975 43.2088 68.4045 43.5551C68.7193 43.8935 69.1208 44.0628 69.6088 44.0628ZM76.1385 43.9329H78.2991V40.6743H76.6107V40.816C76.595 42.1777 76.4376 43.2166 76.1385 43.9329ZM79.2318 45.4677H75.2648L75.1349 46.9554H73.6237V43.9329H74.3085C74.7178 43.0592 74.9224 41.6425 74.9224 39.6826V39.1395H80.0936V43.9329H80.9555L80.743 46.9554H79.2318V45.4677Z" fill="#303030"/>
<defs>
<linearGradient id="paint0_linear_55_1182" x1="113.586" y1="21.8759" x2="-16.4069" y2="45.0138" gradientUnits="userSpaceOnUse">
<stop stop-color="#4614E8"/>
<stop offset="1" stop-color="#BCA7FF"/>
</linearGradient>
</defs>
</svg>
